# xmcd
# Track frame offsets:
# 150
# 13960
# 24671
# 38165
# 51869
# 65309
# 75850
# 88037
# 102060
# 114872
# 124479
# 134676
# 146916
#
# Disc length: 2109 seconds
# Revision: 0
# Processed by: cddbd v1.5.2PL0 Copyright (c) Steve Scherf et al.
# Submitted via: VisiTrax 2.11.3.279 - For more info visit www.synapsa.com
#
DISCID=af083b0d
DTITLE=Georgette Jones - Till I Can Make It On My Own
DYEAR=2012
DGENRE=
TTITLE0=Till I Can Make It On My Owm
TTITLE1=Take Me (duet with Justin Trivino)
TTITLE2=D.I.V.O.R.S.E
TTITLE3=Apartment # 9
TTITLE4=My Elusive Dreams (duet with Tony Booth)
TTITLE5=Stayin Home Woman
TTITLE6=Till I Get It Right
TTITLE7=Golden Ring (duet with Billy Yates)
TTITLE8=Take Me To Your World
TTITLE9=Your Good Girl`s Gonna Go Bad
TTITLE10=Somethin´ To Brag About (duet with Keith Nixon)
TTITLE11=Stand By Your Man
TTITLE12=Run Woman Run /duet with Amber Digby)
EXTD=
EXTT0=
EXTT1=
EXTT2=
EXTT3=
EXTT4=
EXTT5=
EXTT6=
EXTT7=
EXTT8=
EXTT9=
EXTT10=
EXTT11=
EXTT12=
PLAYORDER=
